<svg height="395.94667pt" viewBox="0 0 395.94667 395.94667" width="395.94667pt" xmlns="http://www.w3.org/2000/svg"><path d="m197.972656 395.945312c-109.164062 0-197.972656-88.8125-197.972656-197.972656s88.808594-197.972656 197.972656-197.972656c109.164063 0 197.972656 88.8125 197.972656 197.972656s-88.808593 197.972656-197.972656 197.972656zm0-382.292968c-101.632812 0-184.320312 82.6875-184.320312 184.320312 0 101.632813 82.6875 184.320313 184.320312 184.320313 101.632813 0 184.320313-82.6875 184.320313-184.320313 0-101.632812-82.6875-184.320312-184.320313-184.320312zm0 0"/><path d="m204.800781 122.878906c-58.40625 0-113.816406-12.792968-160.234375-37-3.34375-1.746094-4.640625-5.867187-2.894531-9.207031 1.742187-3.347656 5.859375-4.625 9.207031-2.898437 44.480469 23.191406 97.707032 35.453124 153.921875 35.453124 51.902344 0 101.78125-10.601562 144.246094-30.652343 3.414063-1.605469 7.476563-.148438 9.089844 3.257812 1.609375 3.40625.152343 7.472657-3.257813 9.085938-44.277344 20.90625-96.175781 31.960937-150.078125 31.960937zm0 0"/><path d="m68.261719 122.878906c-.839844 0-1.699219-.152344-2.53125-.484375-3.5-1.402343-5.203125-5.375-3.804688-8.875l13.652344-34.132812c1.40625-3.507813 5.363281-5.214844 8.878906-3.804688 3.5 1.398438 5.203125 5.371094 3.804688 8.871094l-13.65625 34.132813c-1.070313 2.675781-3.632813 4.292968-6.34375 4.292968zm0 0"/><path d="m197.972656 143.359375c-3.769531 0-6.824218-3.050781-6.824218-6.824219v-40.960937c0-3.773438 3.054687-6.828125 6.824218-6.828125 3.769532 0 6.828125 3.054687 6.828125 6.828125v40.960937c0 3.773438-3.058593 6.824219-6.828125 6.824219zm0 0"/><path d="m109.234375 136.535156c-.371094 0-.75-.027344-1.128906-.09375-3.71875-.621094-6.230469-4.140625-5.613281-7.855468l6.828124-40.960938c.621094-3.71875 4.113282-6.28125 7.859376-5.613281 3.714843.621093 6.226562 4.140625 5.609374 7.855469l-6.828124 40.960937c-.558594 3.339844-3.449219 5.707031-6.726563 5.707031zm0 0"/><path d="m150.195312 143.359375c-.371093 0-.75-.027344-1.132812-.09375-3.714844-.617187-6.226562-4.140625-5.609375-7.855469l6.828125-40.957031c.617188-3.714844 4.121094-6.273437 7.855469-5.613281 3.71875.617187 6.230469 4.140625 5.609375 7.851562l-6.824219 40.960938c-.558594 3.339844-3.453125 5.707031-6.726563 5.707031zm0 0"/><path d="m327.683594 122.878906c-2.710938 0-5.273438-1.617187-6.34375-4.292968l-13.652344-34.132813c-1.402344-3.5.300781-7.472656 3.804688-8.875 3.515624-1.382813 7.472656.300781 8.875 3.808594l13.652343 34.132812c1.398438 3.5-.304687 7.472657-3.804687 8.871094-.832032.335937-1.6875.488281-2.53125.488281zm0 0"/><path d="m286.714844 136.535156c-3.28125 0-6.171875-2.367187-6.726563-5.707031l-6.828125-40.960937c-.621094-3.714844 1.894532-7.234376 5.609375-7.855469 3.761719-.671875 7.238281 1.894531 7.859375 5.613281l6.824219 40.960938c.621094 3.714843-1.890625 7.230468-5.609375 7.855468-.378906.066406-.761719.09375-1.128906.09375zm0 0"/><path d="m245.753906 143.359375c-3.28125 0-6.171875-2.367187-6.726562-5.707031l-6.828125-40.960938c-.617188-3.710937 1.894531-7.230468 5.609375-7.851562 3.746094-.660156 7.238281 1.898437 7.859375 5.613281l6.828125 40.957031c.617187 3.714844-1.894532 7.234375-5.613282 7.855469-.378906.066406-.757812.09375-1.128906.09375zm0 0"/><path d="m47.730469 320.851562c-2.460938 0-4.84375-1.332031-6.058594-3.671874-1.746094-3.339844-.449219-7.464844 2.894531-9.207032 46.433594-24.207031 101.84375-37 160.234375-37 53.902344 0 105.800781 11.054688 150.078125 31.960938 3.410156 1.613281 4.871094 5.679687 3.257813 9.085937-1.613281 3.414063-5.675781 4.878907-9.089844 3.261719-42.464844-20.054688-92.34375-30.65625-144.246094-30.65625-56.203125 0-109.425781 12.261719-153.921875 35.453125-1.007812.527344-2.085937.773437-3.148437.773437zm0 0"/><path d="m81.921875 318.757812c-2.707031 0-5.273437-1.617187-6.34375-4.292968l-13.652344-34.132813c-1.398437-3.5.304688-7.472656 3.804688-8.871093 3.519531-1.394532 7.476562.304687 8.875 3.804687l13.65625 34.132813c1.398437 3.5-.304688 7.472656-3.804688 8.871093-.832031.335938-1.691406.488281-2.535156.488281zm0 0"/><path d="m197.972656 305.105469c-3.769531 0-6.824218-3.054688-6.824218-6.828125v-40.957032c0-3.773437 3.054687-6.828124 6.824218-6.828124 3.769532 0 6.828125 3.054687 6.828125 6.828124v40.957032c0 3.773437-3.058593 6.828125-6.828125 6.828125zm0 0"/><path d="m116.046875 311.933594c-3.28125 0-6.171875-2.367188-6.726563-5.707032l-6.828124-40.960937c-.617188-3.714844 1.894531-7.234375 5.613281-7.855469 3.730469-.679687 7.230469 1.894532 7.855469 5.613282l6.828124 40.960937c.617188 3.714844-1.894531 7.234375-5.609374 7.855469-.382813.066406-.761719.09375-1.132813.09375zm0 0"/><path d="m157.007812 305.105469c-3.28125 0-6.171874-2.367188-6.726562-5.707031l-6.828125-40.960938c-.617187-3.710938 1.894531-7.230469 5.609375-7.851562 3.742188-.695313 7.238281 1.890624 7.859375 5.613281l6.824219 40.957031c.621094 3.714844-1.890625 7.234375-5.609375 7.855469-.378907.070312-.761719.09375-1.128907.09375zm0 0"/><path d="m314.023438 318.757812c-.84375 0-1.699219-.152343-2.53125-.484374-3.503907-1.398438-5.207032-5.375-3.804688-8.875l13.652344-34.132813c1.398437-3.507813 5.355468-5.226563 8.875-3.804687 3.5 1.398437 5.203125 5.371093 3.804687 8.871093l-13.652343 34.136719c-1.070313 2.671875-3.632813 4.289062-6.34375 4.289062zm0 0"/><path d="m279.898438 311.933594c-.367188 0-.746094-.027344-1.128907-.09375-3.714843-.621094-6.230469-4.140625-5.609375-7.855469l6.828125-40.960937c.617188-3.710938 4.117188-6.246094 7.855469-5.613282 3.71875.621094 6.230469 4.140625 5.609375 7.855469l-6.824219 40.960937c-.558594 3.339844-3.453125 5.707032-6.730468 5.707032zm0 0"/><path d="m238.941406 305.105469c-.371094 0-.75-.027344-1.132812-.09375-3.714844-.621094-6.226563-4.140625-5.609375-7.855469l6.828125-40.957031c.621094-3.714844 4.109375-6.253907 7.855468-5.613281 3.71875.617187 6.230469 4.140624 5.613282 7.851562l-6.828125 40.960938c-.558594 3.34375-3.449219 5.707031-6.726563 5.707031zm0 0"/><path d="m116.054688 177.492188c0 7.542968-6.113282 13.65625-13.65625 13.65625-7.539063 0-13.652344-6.113282-13.652344-13.65625 0-7.539063 6.113281-13.652344 13.652344-13.652344 7.542968 0 13.65625 6.113281 13.65625 13.652344zm0 0"/><path d="m314.027344 177.492188c0 7.542968-6.113282 13.65625-13.652344 13.65625-7.542969 0-13.65625-6.113282-13.65625-13.65625 0-7.539063 6.113281-13.652344 13.65625-13.652344 7.539062 0 13.652344 6.113281 13.652344 13.652344zm0 0"/></svg>