<svg height="512pt" viewBox="0 0 512 512" width="512pt" xmlns="http://www.w3.org/2000/svg"><path d="m512 135.320312-135.320312-135.320312-234.800782 234.804688 1.542969 63.769531-143.421875 143.421875 70.003906 70.003906 143.421875-143.417969 63.769531 1.542969 104.011719-104.011719c10.148438 6.582031 22.230469 10.421875 35.203125 10.421875 35.777344 0 64.886719-29.105468 64.886719-64.882812 0-12.972656-3.84375-25.054688-10.425781-35.203125zm-42.414062 0-20.378907 20.378907c-9.632812-5.667969-20.835937-8.933594-32.796875-8.933594-35.777344 0-64.886718 29.105469-64.886718 64.882813 0 11.960937 3.265624 23.167968 8.933593 32.800781l-73.613281 73.613281-92.90625-92.90625 182.742188-182.742188zm-289.441407 224.128907-62.34375 62.339843-27.589843-27.589843 62.339843-62.34375zm-137.730469 82.546875 26.589844-26.589844 27.59375 27.589844-26.589844 26.59375zm158.984376-103.707032-27.6875-27.6875-1.539063-63.675781.558594-.5625 92.90625 92.90625-.5625.558594zm215.011718-91.742187c-19.242187 0-34.898437-15.65625-34.898437-34.898437 0-19.242188 15.65625-34.894532 34.898437-34.894532 19.238282 0 34.894532 15.652344 34.894532 34.894532 0 19.242187-15.65625 34.898437-34.894532 34.898437zm0 0"/></svg>