<svg height="440pt" viewBox="0 0 440 440.49473" width="440pt" xmlns="http://www.w3.org/2000/svg"><path d="m352.785156 44.214844c-41.777344-31.582032-93.507812-47.113282-145.773437-43.769532-1.820313-.5273432-3.769531-.3789058-5.488281.414063-3.984376.347656-7.96875.800781-11.957032 1.363281-99.214844 14.109375-176.425781 93.371094-187.929687 192.925782-.707031 1.570312-.886719 3.328124-.507813 5.007812-1.519531 16.996094-1.0742185 34.113281 1.332032 51.007812 15.390624 108.410157 108.066406 189.058594 217.5625 189.332032 2.765624 0 5.535156-.054688 8.308593-.160156.101563 0 .203125.015624.308594.015624.273437-.003906.546875-.015624.820313-.042968.066406-.007813.132812-.023438.199218-.03125 7.226563-.316406 14.476563-.984375 21.738282-2 88.1875-12.503906 160.15625-76.898438 182.347656-163.160156 22.195312-86.257813-9.761719-177.390626-80.960938-230.902344zm-295.539062 53.34375c32.4375-43.410156 80.894531-72.035156 134.566406-79.496094 1.769531-.25 3.535156-.46875 5.304688-.675781.164062 46.964843-18.726563 91.992187-52.355469 124.777343-32.320313 31.457032-75.6875 48.996094-120.789063 48.851563-1.882812 0-3.769531-.039063-5.65625-.101563 4.894532-33.90625 18.285156-66.019531 38.929688-93.355468zm-38.945313 151.359375c-1.976562-13.921875-2.527343-28.011719-1.636719-42.046875 2.441407.089844 4.875.140625 7.308594.144531 49.289063.140625 96.667969-19.035156 131.980469-53.417969 37.007813-36.09375 57.652344-85.75 57.144531-137.445312 2.609375-.097656 5.214844-.148438 7.816406-.152344 101.535157.257812 187.476563 75.042969 201.753907 175.574219 1.632812 11.496093 2.296875 23.109375 1.976562 34.71875-54.519531-4.804688-108.429687 14.398437-147.632812 52.59375-39.636719 37.839843-60.125 90.5-56.988281 145.605469-101.527344-.273438-187.449219-75.054688-201.722657-175.574219zm365.421875 94.019531c-32.4375 43.40625-80.894531 72.03125-134.566406 79.492188-4.386719.621093-8.769531 1.101562-13.144531 1.433593-2.949219-50.511719 15.773437-98.773437 52.089843-133.445312 35.96875-35.058594 85.457032-52.648438 135.484376-48.160157-3.925782 36.550782-17.703126 71.347657-39.863282 100.679688zm0 0"/></svg>