<svg height="512pt" viewBox="0 0 512 512" width="512pt" xmlns="http://www.w3.org/2000/svg"><path d="m437.019531 74.980469c-48.351562-48.351563-112.640625-74.980469-181.019531-74.980469s-132.667969 26.628906-181.019531 74.980469c-48.351563 48.351562-74.980469 112.640625-74.980469 181.019531s26.628906 132.667969 74.980469 181.019531c48.351562 48.351563 112.640625 74.980469 181.019531 74.980469s132.667969-26.628906 181.019531-74.980469c48.351563-48.351562 74.980469-112.640625 74.980469-181.019531s-26.628906-132.667969-74.980469-181.019531zm22.527344 82.859375c-19.039063 80.175781-54.710937 140.203125-103.359375 173.773437-25.457031 17.566407-48.601562 23.820313-60.777344 26.023438-3.832031-7.9375-7.273437-16.261719-10.316406-24.976563-10.25-29.363281-13.050781-55.488281-13.8125-68.214844 64.691406-39.203124 93.941406-94.679687 107.113281-135.066406 6.941407-21.289062 10.238281-40.53125 11.773438-55.125 29.371093 21.738282 53.316406 50.410156 69.378906 83.585938zm-373.796875 54.714844c-22.175781 4.757812-40.738281 11.730468-54.292969 17.855468 3.988281-35.242187 16.105469-68.054687 34.441407-96.503906 6.675781-2.515625 49.683593-18.023438 100.140624-20.421875 67.144532-3.199219 120.992188 15.992187 160.246094 57.039063-17.46875 27.523437-40.953125 50.300781-70.234375 68.070312-65.632812-37.429688-128.476562-35.011719-170.300781-26.039062zm275.605469-156.441407c-.386719 12.164063-2.441407 36.699219-11.839844 65.046875-2.488281 7.496094-5.308594 14.742188-8.4375 21.75-22.625-21.574218-49.320313-37.496094-79.625-47.433594-29.523437-9.6875-62.425781-13.699218-97.777344-11.914062-24.125 1.21875-46 4.945312-63.613281 9 40.585938-38.742188 95.53125-62.5625 155.9375-62.5625 38.023438 0 73.878906 9.453125 105.355469 26.113281zm-331.179688 208.382813c10.570313-5.761719 32.625-16.335938 61.867188-22.609375 6.429687-1.378907 12.816406-2.472657 19.164062-3.289063-2.351562 19.183594-4.164062 50.375 1.476563 86.382813 5.425781 34.664062 16.664062 66.671875 33.394531 95.132812 10.8125 18.394531 23.9375 35.273438 39.226563 50.550781-87.53125-28.898437-151.550782-109.9375-155.128907-206.167968zm216.496094 217.296875c-58.085937-37.75-93.140625-91.683594-104.183594-160.386719-5.894531-36.707031-3.082031-68.363281-.75-84.558594 34.707031.527344 68.003907 9.816406 99.492188 27.816406.722656 14.113282 3.640625 43.359376 15.167969 76.820313 17.875 51.875 49.433593 93.121094 92.050781 120.726563-28.234375 12.710937-59.53125 19.789062-92.449219 19.789062-3.125 0-6.230469-.082031-9.328125-.207031zm132.410156-36.34375c-27.707031-14.691407-50.414062-34.945313-67.929687-60.535157 15.484375-3.898437 37.03125-11.703124 60.210937-27.339843 25.507813-17.203125 47.941407-40.429688 66.679688-69.035157 15.417969-23.53125 28.328125-50.792968 38.625-81.386718 3.480469 15.738281 5.332031 32.078125 5.332031 48.847656 0 79.25-41.011719 149.09375-102.917969 189.449219zm0 0"/></svg>